<svg xmlns="http://www.w3.org/2000/svg" xmlns:xlink="http://www.w3.org/1999/xlink" width="2000" zoomAndPan="magnify" viewBox="0 0 1500 1499.999933" height="2000" preserveAspectRatio="xMidYMid meet" version="1.0"><defs><g/><clipPath id="3e6560a545"><rect x="0" width="1500" y="0" height="926"/></clipPath></defs><g transform="matrix(1, 0, 0, 1, 0, 287)"><g clip-path="url(#3e6560a545)"><g fill="#feaf00" fill-opacity="1"><g transform="translate(191.812073, 3.955932)"><g><path d="M 613.609375 383.3125 C 638.953125 383.445312 659.1875 390.394531 674.3125 404.15625 C 689.4375 417.914062 696.941406 436.453125 696.828125 459.765625 C 696.703125 483.078125 689.003906 501.53125 673.734375 515.125 C 658.460938 528.71875 638.15625 535.445312 612.8125 535.3125 L 460.8125 534.5 C 435.476562 534.363281 415.242188 527.421875 400.109375 513.671875 C 384.984375 499.921875 377.484375 481.390625 377.609375 458.078125 C 377.722656 434.765625 385.414062 416.304688 400.6875 402.703125 C 415.96875 389.097656 436.273438 382.363281 461.609375 382.5 Z M 310.25 260.078125 C 247.414062 259.742188 197.410156 277.210938 160.234375 312.484375 C 123.054688 347.765625 104.304688 395.804688 103.984375 456.609375 C 103.648438 517.398438 121.882812 565.628906 158.6875 601.296875 C 195.488281 636.972656 245.304688 654.976562 308.140625 655.3125 L 779.375 657.828125 C 842.207031 658.160156 892.210938 640.6875 929.390625 605.40625 C 966.566406 570.132812 985.320312 522.101562 985.65625 461.3125 C 985.976562 400.507812 967.738281 352.269531 930.9375 316.59375 C 894.132812 280.925781 844.316406 262.925781 781.484375 262.59375 Z M 310.984375 123.265625 L 782.21875 125.78125 C 831.882812 126.039062 876.941406 134.132812 917.390625 150.0625 C 957.835938 165.988281 992.171875 188.46875 1020.390625 217.5 C 1048.617188 246.539062 1070.222656 281.617188 1085.203125 322.734375 C 1100.191406 363.859375 1107.550781 410.265625 1107.28125 461.953125 C 1107 513.628906 1099.144531 559.945312 1083.71875 600.90625 C 1068.300781 641.875 1046.328125 676.722656 1017.796875 705.453125 C 989.273438 734.191406 954.703125 756.304688 914.078125 771.796875 C 873.460938 787.285156 828.320312 794.898438 778.65625 794.640625 L 307.421875 792.125 C 257.765625 791.863281 212.960938 783.769531 173.015625 767.84375 C 133.066406 751.925781 98.976562 729.445312 70.75 700.40625 C 42.53125 671.375 20.675781 636.039062 5.1875 594.40625 C -10.289062 552.769531 -17.894531 506.625 -17.625 455.96875 C -17.351562 404.28125 -9.507812 357.953125 5.90625 316.984375 C 21.332031 276.023438 43.304688 241.175781 71.828125 212.4375 C 100.359375 183.707031 134.9375 161.597656 175.5625 146.109375 C 216.1875 130.617188 261.328125 123.003906 310.984375 123.265625 Z M 310.984375 123.265625 "/></g></g></g></g></g></svg>