<svg xmlns="http://www.w3.org/2000/svg" xmlns:xlink="http://www.w3.org/1999/xlink" width="2000" zoomAndPan="magnify" viewBox="0 0 1500 1499.999933" height="2000" preserveAspectRatio="xMidYMid meet" version="1.0"><defs><g/><clipPath id="6f1e71c63c"><rect x="0" width="829" y="0" height="455"/></clipPath><clipPath id="b8d874fb0f"><rect x="0" width="707" y="0" height="892"/></clipPath></defs><g transform="matrix(1, 0, 0, 1, 671, 518)"><g clip-path="url(#6f1e71c63c)"><g fill="#feaf00" fill-opacity="1"><g transform="translate(183.175087, 1.720401)"><g><path d="M 301.6875 188.453125 C 314.144531 188.523438 324.09375 191.941406 331.53125 198.703125 C 338.96875 205.460938 342.660156 214.578125 342.609375 226.046875 C 342.546875 237.503906 338.757812 246.578125 331.25 253.265625 C 323.738281 259.953125 313.753906 263.257812 301.296875 263.1875 L 226.5625 262.796875 C 214.101562 262.722656 204.15625 259.304688 196.71875 252.546875 C 189.28125 245.785156 185.59375 236.675781 185.65625 225.21875 C 185.707031 213.75 189.488281 204.671875 197 197.984375 C 204.507812 191.296875 214.492188 187.988281 226.953125 188.0625 Z M 152.546875 127.859375 C 121.648438 127.691406 97.0625 136.28125 78.78125 153.625 C 60.5 170.976562 51.28125 194.601562 51.125 224.5 C 50.957031 254.394531 59.921875 278.109375 78.015625 295.640625 C 96.109375 313.171875 120.601562 322.019531 151.5 322.1875 L 383.171875 323.421875 C 414.066406 323.585938 438.65625 315 456.9375 297.65625 C 475.21875 280.320312 484.441406 256.707031 484.609375 226.8125 C 484.765625 196.914062 475.796875 173.195312 457.703125 155.65625 C 439.609375 138.113281 415.113281 129.257812 384.21875 129.09375 Z M 152.90625 60.609375 L 384.578125 61.84375 C 408.992188 61.976562 431.144531 65.957031 451.03125 73.78125 C 470.925781 81.601562 487.804688 92.648438 501.671875 106.921875 C 515.535156 121.203125 526.148438 138.453125 533.515625 158.671875 C 540.890625 178.890625 544.507812 201.707031 544.375 227.125 C 544.238281 252.53125 540.378906 275.300781 532.796875 295.4375 C 525.210938 315.570312 514.410156 332.703125 500.390625 346.828125 C 486.367188 360.960938 469.375 371.835938 449.40625 379.453125 C 429.4375 387.078125 407.242188 390.820312 382.828125 390.6875 L 151.15625 389.453125 C 126.738281 389.328125 104.707031 385.347656 85.0625 377.515625 C 65.414062 369.691406 48.65625 358.640625 34.78125 344.359375 C 20.90625 330.078125 10.160156 312.703125 2.546875 292.234375 C -5.054688 271.765625 -8.789062 249.078125 -8.65625 224.171875 C -8.519531 198.753906 -4.664062 175.976562 2.90625 155.84375 C 10.488281 135.707031 21.289062 118.570312 35.3125 104.4375 C 49.34375 90.3125 66.34375 79.441406 86.3125 71.828125 C 106.289062 64.222656 128.488281 60.484375 152.90625 60.609375 Z M 152.90625 60.609375 "/></g></g></g></g></g><g transform="matrix(1, 0, 0, 1, 150, 194)"><g clip-path="url(#b8d874fb0f)"><g fill="#272527" fill-opacity="1"><g transform="translate(0.00002043, 713.543828)"><g><path d="M 247.515625 -28.328125 C 247.515625 -20.523438 244.847656 -13.851562 239.515625 -8.3125 C 234.179688 -2.769531 227.613281 0 219.8125 0 L 202.578125 0 C 194.773438 0 188.203125 -2.769531 182.859375 -8.3125 C 177.523438 -13.851562 174.859375 -20.523438 174.859375 -28.328125 L 174.859375 -237.046875 C 174.859375 -239.515625 173.9375 -241.566406 172.09375 -243.203125 C 170.25 -244.847656 168.300781 -245.671875 166.25 -245.671875 L 106.515625 -245.671875 C 104.460938 -245.671875 102.515625 -244.847656 100.671875 -243.203125 C 98.828125 -241.566406 97.90625 -239.515625 97.90625 -237.046875 L 97.90625 -28.328125 C 97.90625 -20.523438 95.234375 -13.851562 89.890625 -8.3125 C 84.554688 -2.769531 77.988281 0 70.1875 0 L 52.953125 0 C 45.148438 0 38.476562 -2.769531 32.9375 -8.3125 C 27.394531 -13.851562 24.625 -20.523438 24.625 -28.328125 L 24.625 -387.90625 C 24.625 -396.113281 27.394531 -402.882812 32.9375 -408.21875 C 38.476562 -413.550781 45.148438 -416.21875 52.953125 -416.21875 L 70.1875 -416.21875 C 77.988281 -416.21875 84.554688 -413.550781 89.890625 -408.21875 C 95.234375 -402.882812 97.90625 -396.113281 97.90625 -387.90625 L 97.90625 -326.328125 C 97.90625 -324.273438 98.828125 -322.53125 100.671875 -321.09375 C 102.515625 -319.65625 104.460938 -318.9375 106.515625 -318.9375 L 179.171875 -318.9375 C 191.898438 -318.9375 203.394531 -315.859375 213.65625 -309.703125 C 223.914062 -303.546875 232.125 -295.234375 238.28125 -284.765625 C 244.4375 -274.296875 247.515625 -262.703125 247.515625 -249.984375 Z M 247.515625 -28.328125 "/></g></g></g><g fill="#272527" fill-opacity="1"><g transform="translate(272.763287, 713.543828)"><g><path d="M 247.515625 -68.953125 C 247.515625 -49.660156 240.84375 -33.34375 227.5 -20 C 214.164062 -6.664062 198.054688 0 179.171875 0 L 93.59375 0 C 74.707031 0 58.488281 -6.664062 44.9375 -20 C 31.394531 -33.34375 24.625 -49.660156 24.625 -68.953125 L 24.625 -136.078125 C 24.625 -148.796875 27.804688 -160.179688 34.171875 -170.234375 C 40.535156 -180.296875 48.847656 -188.40625 59.109375 -194.5625 C 69.367188 -200.71875 80.863281 -203.796875 93.59375 -203.796875 L 166.25 -203.796875 C 168.300781 -203.796875 170.25 -204.617188 172.09375 -206.265625 C 173.9375 -207.910156 174.859375 -209.960938 174.859375 -212.421875 L 174.859375 -237.046875 C 174.859375 -239.515625 173.9375 -241.566406 172.09375 -243.203125 C 170.25 -244.847656 168.300781 -245.671875 166.25 -245.671875 L 93.59375 -245.671875 C 85.789062 -245.671875 79.117188 -248.335938 73.578125 -253.671875 C 68.035156 -259.015625 65.265625 -265.582031 65.265625 -273.375 L 65.265625 -290 C 65.265625 -298.207031 68.035156 -305.082031 73.578125 -310.625 C 79.117188 -316.164062 85.789062 -318.9375 93.59375 -318.9375 L 179.171875 -318.9375 C 191.898438 -318.9375 203.394531 -315.859375 213.65625 -309.703125 C 223.914062 -303.546875 232.125 -295.234375 238.28125 -284.765625 C 244.4375 -274.296875 247.515625 -262.703125 247.515625 -249.984375 Z M 174.859375 -80.65625 L 174.859375 -123.140625 C 174.859375 -125.191406 173.9375 -127.035156 172.09375 -128.671875 C 170.25 -130.316406 168.300781 -131.140625 166.25 -131.140625 L 106.515625 -131.140625 C 104.460938 -131.140625 102.515625 -130.316406 100.671875 -128.671875 C 98.828125 -127.035156 97.90625 -125.191406 97.90625 -123.140625 L 97.90625 -80.65625 C 97.90625 -78.601562 98.828125 -76.753906 100.671875 -75.109375 C 102.515625 -73.472656 104.460938 -72.65625 106.515625 -72.65625 L 166.25 -72.65625 C 168.300781 -72.65625 170.25 -73.472656 172.09375 -75.109375 C 173.9375 -76.753906 174.859375 -78.601562 174.859375 -80.65625 Z M 174.859375 -80.65625 "/></g></g></g><g fill="#272527" fill-opacity="1"><g transform="translate(545.526555, 713.543828)"><g><path d="M 136.6875 -28.328125 C 136.6875 -20.523438 133.914062 -13.851562 128.375 -8.3125 C 122.832031 -2.769531 116.160156 0 108.359375 0 L 92.96875 0 C 74.09375 0 57.878906 -6.664062 44.328125 -20 C 30.785156 -33.34375 24.015625 -49.660156 24.015625 -68.953125 L 24.015625 -387.90625 C 24.015625 -396.113281 26.785156 -402.882812 32.328125 -408.21875 C 37.867188 -413.550781 44.539062 -416.21875 52.34375 -416.21875 L 69.578125 -416.21875 C 77.378906 -416.21875 84.050781 -413.550781 89.59375 -408.21875 C 95.132812 -402.882812 97.90625 -396.113281 97.90625 -387.90625 L 97.90625 -80.65625 C 97.90625 -75.320312 100.363281 -72.65625 105.28125 -72.65625 L 108.359375 -72.65625 C 116.160156 -72.65625 122.832031 -69.984375 128.375 -64.640625 C 133.914062 -59.304688 136.6875 -52.535156 136.6875 -44.328125 Z M 136.6875 -28.328125 "/></g></g></g></g></g></svg>